<svg width="63" height="63" viewBox="0 0 63 63" fill="none" xmlns="http://www.w3.org/2000/svg">
<g filter="url(#filter0_d)">
<path d="M44.9556 55H18.0444C10.3006 55 4 48.6976 4 40.9538V14.0426C4 6.29882 10.3006 0 18.0444 0H44.9556C52.6994 0 59 6.29882 59 14.0426V40.9538C59 48.6976 52.6994 55 44.9556 55ZM18.0444 3.14144C12.0325 3.14144 7.14321 8.03068 7.14321 14.0409V40.9521C7.14321 46.964 12.0342 51.8532 18.0444 51.8532H44.9556C50.9675 51.8532 55.855 46.9622 55.855 40.9521V14.0426C55.855 8.03068 50.9658 3.14321 44.9556 3.14321H18.0444V3.14144Z" fill="white"/>
<path d="M57.4275 20.6372H38.0565C37.1888 20.6372 36.484 19.9324 36.484 19.0647C36.484 18.197 37.187 17.4922 38.0565 17.4922H57.4257C58.2934 17.4922 58.9982 18.1952 58.9982 19.0647C59 19.9324 58.2952 20.6372 57.4275 20.6372Z" fill="white"/>
<path d="M24.5362 20.6371H5.57072C4.70302 20.6371 4 19.9323 4 19.0664C4 18.1987 4.70302 17.4939 5.57072 17.4939H24.5362C25.4039 17.4939 26.1087 18.1969 26.1087 19.0664C26.107 19.9323 25.4039 20.6371 24.5362 20.6371Z" fill="white"/>
<path d="M31.4991 39.755C24.7416 39.755 19.2415 34.2583 19.2415 27.4991C19.2415 20.7399 24.7399 15.2415 31.4991 15.2415C38.2566 15.2415 43.755 20.7381 43.755 27.4991C43.755 34.2583 38.2583 39.755 31.4991 39.755ZM31.4991 18.3847C26.4735 18.3847 22.3829 22.4753 22.3829 27.5009C22.3829 32.5265 26.4735 36.6135 31.4991 36.6135C36.5247 36.6135 40.6118 32.5265 40.6118 27.5009C40.6118 22.4753 36.5247 18.3847 31.4991 18.3847Z" fill="white"/>
<path d="M49.2569 16.5767H42.186C41.3183 16.5767 40.6135 15.8736 40.6135 15.0059V7.93327C40.6135 7.06557 41.3183 6.36255 42.186 6.36255H49.2569C50.1246 6.36255 50.8276 7.06557 50.8276 7.93327V15.0059C50.8259 15.8754 50.1246 16.5767 49.2569 16.5767ZM43.755 13.4334H47.6844V9.50576H43.755V13.4334Z" fill="white"/>
</g>
<defs>
<filter id="filter0_d" x="0" y="0" width="63" height="63" filterUnits="userSpaceOnUse" color-interpolation-filters="sRGB">
<feFlood flood-opacity="0" result="BackgroundImageFix"/>
<feColorMatrix in="SourceAlpha" type="matrix" values="0 0 0 0 0 0 0 0 0 0 0 0 0 0 0 0 0 0 127 0"/>
<feOffset dy="4"/>
<feGaussianBlur stdDeviation="2"/>
<feColorMatrix type="matrix" values="0 0 0 0 0 0 0 0 0 0 0 0 0 0 0 0 0 0 0.25 0"/>
<feBlend mode="normal" in2="BackgroundImageFix" result="effect1_dropShadow"/>
<feBlend mode="normal" in="SourceGraphic" in2="effect1_dropShadow" result="shape"/>
</filter>
</defs>
</svg>
